<svg width="82" height="12" viewBox="0 0 82 12" fill="none" xmlns="http://www.w3.org/2000/svg">
<g clip-path="url(#clip0_1_16)">
<path d="M72.2008 7.26045L70.7838 10.3848H67.8446L71.4273 2.50696H74.3665L73.0732 5.35057H77.2283L78.5246 2.50696H81.4638L77.8811 10.3816H74.9419L76.3589 7.25719H72.2039L72.2008 7.26045Z" fill="white"/>
<path d="M62.1486 7.92646L63.5068 4.95226C63.5594 4.83147 63.6522 4.76944 63.7884 4.76944H69.6574L70.6908 2.50696H63.5966C63.38 2.50696 63.1789 2.52981 62.984 2.56246L61.6753 5.42239H60.3449L58.8629 8.68062C58.8289 8.7655 58.7949 8.84712 58.767 8.92221C58.7392 8.9973 58.7113 9.07566 58.6928 9.15401C58.4855 9.97347 58.9248 10.3816 60.0139 10.3816H67.1081L68.1322 8.11908H62.2631C62.1455 8.11908 62.0991 8.07664 62.1208 7.98849C62.127 7.95911 62.1362 7.93952 62.1486 7.9232V7.92646Z" fill="white"/>
<path d="M33.5423 3.13379L33.9043 7.54122L38.2914 3.13379C38.7029 2.7159 39.1948 2.51022 39.7672 2.51022H41.0326C41.9112 2.51022 42.2577 2.87261 42.0721 3.59739C42.0535 3.67574 42.0257 3.7541 41.9979 3.83572C41.9669 3.91407 41.936 3.99895 41.8988 4.08384L39.0339 10.3881H36.4413L38.3409 6.2092L34.7427 9.76452C34.3158 10.1824 33.8641 10.3881 33.3907 10.3881H31.85C31.6117 10.3881 31.4261 10.3359 31.2931 10.2314C31.16 10.1269 31.0827 9.9702 31.061 9.76126L30.6991 6.20593L28.7994 10.3848H26.2068L29.0748 4.08057C29.5512 3.03258 30.3185 2.50696 31.3735 2.50696H32.6389C33.2113 2.50696 33.5145 2.7159 33.5516 3.13053L33.5423 3.13379Z" fill="white"/>
<path d="M20.8356 2.48728C20.6562 2.48728 20.486 2.48728 20.322 2.48728C20.517 2.77458 20.6902 3.2545 20.5077 3.97601C20.4551 4.18496 20.3746 4.40696 20.2695 4.63223L19.6661 5.94793C19.366 6.60415 18.9669 7.12324 18.475 7.49543C18.1966 7.70437 17.881 7.86761 17.5376 7.98514L18.212 10.3815H25.4053C25.4053 10.3815 25.8322 9.44122 26.3984 8.19082H20.254L20.6407 7.31913H26.7913C27.0636 6.72168 27.3482 6.09158 27.6267 5.48107H21.2595L21.6462 4.60938H28.0227L28.0351 4.57999C28.4063 3.7638 28.9849 2.48728 28.9849 2.48728H20.8356Z" fill="#CFFF27"/>
<path d="M52.836 2.50696C52.836 2.50696 52.8391 2.51022 52.8422 2.51349C53.0248 2.76487 53.2073 3.20888 53.034 3.89448C53.0062 3.99895 52.9753 4.10343 52.935 4.20463C52.9041 4.28952 52.867 4.37767 52.8298 4.46908L52.6937 4.76944H55.0636L52.5143 10.3816H55.4534L58.0028 4.76944H61.2854L62.3187 2.50696H52.836Z" fill="white"/>
<path d="M51.122 2.50732H45.3117C44.6713 2.50732 44.1267 2.6477 43.6781 2.93173C43.2295 3.21577 42.8737 3.64019 42.6138 4.20826L39.8108 10.3819H42.75L43.774 8.11944H47.5424L46.5183 10.3819H49.4575L52.2605 4.20826C52.2946 4.12337 52.3286 4.03849 52.3595 3.96013C52.3905 3.88178 52.4152 3.80343 52.4338 3.72181C52.6411 2.90888 52.2017 2.50405 51.1189 2.50405L51.122 2.50732ZM48.387 5.9549H44.4485L44.86 5.03098H48.8109L48.3901 5.9549H48.387Z" fill="white"/>
<path d="M18.4381 2.48728H11.9347C12.1297 2.77458 12.3029 3.2545 12.1204 3.97601C12.0678 4.17843 11.9904 4.39064 11.8914 4.60938H16.3744L15.9784 5.48107H11.4954L11.0747 6.40499C10.558 7.54766 9.71026 8.26264 8.59956 8.52709L7.73637 10.3815H10.5085L11.7182 7.8774H13.6395L14.3047 10.3815H17.448L16.6096 7.40075C17.1758 7.33872 17.6553 7.16242 18.0482 6.86859C18.4411 6.57476 18.7598 6.15687 19.0073 5.61492L19.6106 4.29596C19.6942 4.11313 19.7591 3.9401 19.7994 3.77686C20.0221 2.91823 19.5673 2.48728 18.4381 2.48728Z" fill="#CFFF27"/>
<path fill-rule="evenodd" clip-rule="evenodd" d="M3.022 2.48752H10.0482C11.1774 2.48752 11.6322 2.91847 11.4157 3.7771C11.3754 3.94034 11.3136 4.11337 11.2269 4.2962L10.4194 6.07223C9.87491 7.27692 8.93128 7.8809 7.59164 7.8809H4.26883L5.36405 5.4813H7.58545L7.98146 4.60961H4.82458L3.01846 8.58298H4.95213L-0.26413 12.6313L1.53959 8.70378H0.227795L2.18002 4.329H2.18348L3.022 2.48752Z" fill="#CFFF27"/>
</g>
<defs>
<clipPath id="clip0_1_16">
<rect width="81.3333" height="11.619" fill="white" transform="translate(0.266769 0.366669)"/>
</clipPath>
</defs>
</svg>
